<svg id="Layer_1" data-name="Layer 1" xmlns="http://www.w3.org/2000/svg" xmlns:xlink="http://www.w3.org/1999/xlink" viewBox="0 0 693.39 216.54"><defs><style>.cls-1{opacity:0.7;}.cls-2{fill:url(#linear-gradient);}.cls-3{opacity:0.19;}.cls-4,.cls-6{fill:#383838;}.cls-24,.cls-26,.cls-5{fill:#fff;}.cls-5{opacity:0.99;}.cls-6{opacity:0.68;}.cls-7{fill:#3e4e57;}.cls-8{fill:#242c33;}.cls-9{fill:#422817;}.cls-10{fill:#997355;}.cls-11{fill:#935c35;}.cls-12{fill:#332818;}.cls-13{fill:#9b7b50;}.cls-14{opacity:0.76;fill:url(#radial-gradient);}.cls-15{opacity:0.29;fill:url(#radial-gradient-2);}.cls-16{fill:#f5bc67;}.cls-17{fill:#b27e5b;}.cls-18{fill:#e6be18;}.cls-18,.cls-21{opacity:0.97;}.cls-19{opacity:0.21;}.cls-20{fill:#ceb463;}.cls-21{fill:#d3ab06;}.cls-22{fill:#f59c15;}.cls-23{fill:#a06b47;}.cls-25{opacity:0.94;fill:url(#radial-gradient-3);}.cls-26{opacity:0.98;}</style><linearGradient id="linear-gradient" x1="83.05" y1="321.5" x2="776.45" y2="321.5" gradientUnits="userSpaceOnUse"><stop offset="0" stop-color="#fff"/><stop offset="0.16" stop-color="#fffdfb"/><stop offset="0.32" stop-color="#fef8ee"/><stop offset="0.49" stop-color="#fdeed9"/><stop offset="0.65" stop-color="#fbe1bc"/><stop offset="0.83" stop-color="#f8d196"/><stop offset="1" stop-color="#f5bd68"/><stop offset="1" stop-color="#f5bc67"/></linearGradient><radialGradient id="radial-gradient" cx="530.03" cy="355.21" r="148.75" gradientTransform="translate(-22.65 -46.63) scale(0.9 0.53)" gradientUnits="userSpaceOnUse"><stop offset="0" stop-color="#fff"/><stop offset="0.15" stop-color="#fefbfb"/><stop offset="0.3" stop-color="#fdefed"/><stop offset="0.47" stop-color="#fadad7"/><stop offset="0.64" stop-color="#f6beb9"/><stop offset="0.81" stop-color="#f19a91"/><stop offset="0.99" stop-color="#eb6e62"/><stop offset="1" stop-color="#eb6a5e"/></radialGradient><radialGradient id="radial-gradient-2" cx="536.81" cy="353.34" r="59.25" gradientTransform="translate(-196.91 -22.55) scale(1.21 0.46)" gradientUnits="userSpaceOnUse"><stop offset="0" stop-color="#fff" stop-opacity="0"/><stop offset="0.12" stop-color="#fffcfb" stop-opacity="0.02"/><stop offset="0.25" stop-color="#fdf2ee" stop-opacity="0.08"/><stop offset="0.39" stop-color="#fbe1d8" stop-opacity="0.17"/><stop offset="0.52" stop-color="#f8caba" stop-opacity="0.3"/><stop offset="0.67" stop-color="#f5ac94" stop-opacity="0.47"/><stop offset="0.81" stop-color="#f08764" stop-opacity="0.68"/><stop offset="0.96" stop-color="#eb5c2d" stop-opacity="0.92"/><stop offset="1" stop-color="#e94e1b"/></radialGradient><radialGradient id="radial-gradient-3" cx="441.14" cy="71.53" r="1.91" gradientUnits="userSpaceOnUse"><stop offset="0" stop-color="#fff"/><stop offset="0.16" stop-color="#f9cccf"/><stop offset="0.39" stop-color="#f1868d"/><stop offset="0.59" stop-color="#eb4f58"/><stop offset="0.77" stop-color="#e72733"/><stop offset="0.91" stop-color="#e40f1c"/><stop offset="1" stop-color="#e30613"/></radialGradient></defs><g class="cls-1"><path class="cls-2" d="M776.45,271.8c-52.26,18.3-111.54,10.39-168.17,11.91q-19.28.51-38.38,2.57c-1.58.17-3.18.34-4.76.54h-.06l-4.28.53c-2.26.29-4.49.58-6.75.9-.25,0-.5.06-.75.11-1.45.2-2.89.41-4.32.65q-12.93,1.94-25.72,4.61c-62,12.82-120.47,37.62-169,72.29-32.67,23.3-85.29,45.46-127,54-35.33,7.25-106.21,6.87-142.39,9.85l-1.78-95.68c44.3,4.16,60.59-1,100.8-17.1,31.86-12.72,59.91-31.14,90.27-46.22,85.83-42.63,188-57.47,287.82-57.54,25.9,0,51.87.91,77.48,4.1,45.43,5.64,90.13,18.38,136,16.56Z" transform="translate(-83.05 -213.23)"/></g><g class="cls-3"><path class="cls-4" d="M255.79,344.64c0,3.91,4.53,6,8.27,7.1a123.59,123.59,0,0,0,15.68,3.94c6.67,1.05,13.45,1,20.19,1.41,8.61.55,17.16,1.91,25.69,3.26l63.22,10c8.16,1.29,16.4,2.61,24,5.76-2.45,3.7-8.32,1.69-12.47,3.27-4.67,1.79-6.08,7.58-6.84,12.53l-3.37,22a6.33,6.33,0,0,0,.06,3.15c.74,2,3.23,2.72,5.38,2.81a21.85,21.85,0,0,0,13.42-3.9c2.85-2,5.36-4.73,8.74-5.53a16.87,16.87,0,0,1,6.56.19c15.23,2.44,16.62-26.43,31.84-24,1.14.18,0,0,21.56,9.36,1.68.73,61.5-11.12,62-12.89,4.25-17-38-2.36-42.5-19.25-1.6-6-25.56-14.65-31-17.6-2.72-1.49-5.87-1.94-9-2.36l-23.21-3.22c-4.08-.56-8.16-1.13-12.27-1.28-6.54-.25-13.08.54-19.61.33-10.84-.34-21.38-3.39-31.92-6-22.46-5.51-45.37-9-68.24-12.39-1.65-.25-3.49-.45-4.83.55,10.25,9.77,25.14,12.35,39,15.36a348.09,348.09,0,0,1,54.34,16.51c-13.28.3-26.36-3.13-39.62-3.69-11-.47-22.1,1-33.11.13-19-1.57-37.44-10.3-56.42-8.28-2.05.21-4.63,1.18-4.55,3.24" transform="translate(-83.05 -213.23)"/></g><path class="cls-5" d="M265.91,346.81s-2.18,1.31-6.76,0-12.66.44-13.53-2-3.71-6.11,0-6.11h17C265.69,338.74,273.33,342.45,265.91,346.81Z" transform="translate(-83.05 -213.23)"/><path class="cls-6" d="M300.48,319.29a66.93,66.93,0,0,1,7.93-6c3.27-1.88,6.44-2.87,8.52-2.77S320,312.85,320,314a7.79,7.79,0,0,1-3.27,5.25c-2,1.19-3.87,1.29-5.35,2s-6,7.33-8.42,7.63a13.64,13.64,0,0,1-5-.5Z" transform="translate(-83.05 -213.23)"/><path class="cls-7" d="M271.7,286a31.15,31.15,0,0,0-1.73,9.08,25.2,25.2,0,0,1-3.89,13c-2.45,3.89-12,14.91-13.84,17.33s-8.49,13.68-8.48,14.24a6.64,6.64,0,0,0,6.17,4.32c4.18,0,10.67-3.46,11.1-3.75s7.79-11.38,13.41-17.58,10.23-12.83,10.81-14.13,2.88-1.15,4-8.21S288,286,288,286Z" transform="translate(-83.05 -213.23)"/><path class="cls-8" d="M293.19,283.25s2,5,3.59,8.69,2.59,4.76,3.26,8.35a23.88,23.88,0,0,0,4.18,9.78c1.75,2.08,4.78,5.76,4.78,5.76s-.69,5-4.78,6.51-4.38,6.27-5.53,3.55-6.75-11.82-7.42-14.15-5.1-7.27-5.1-7.27l.67-16.38Z" transform="translate(-83.05 -213.23)"/><path class="cls-6" d="M308.41,313.34s-2.61-1.56-1.94,0,.08,3.07,1.59,3.16a4.1,4.1,0,0,0,2.5-.67Z" transform="translate(-83.05 -213.23)"/><path d="M301.61,264.08a23.39,23.39,0,0,1-4,11.52s-2.56,7.85-3.91,13.47-.9,5.38-7.2,8.3S273,296.25,270,295.06s-4.37-15-3.29-23.05.05-6.53,0-12.14-6-7.86-6.25-10.55,4.72-8.54,6.25-11.91,6.11-2,8.12-2c1.77,0,4.37,3.06,5,3.85a1.83,1.83,0,0,1,.16.19c-1.19,1.57,1.13,3.56,4.85,6.69a10.19,10.19,0,0,0,2.94,1.89c1.25.43,1.85,0,3,.4a3.58,3.58,0,0,1,.75.39,5.79,5.79,0,0,1,.82.66,60.3,60.3,0,0,0,5.23,5l.05,0,.29.24s0,0,0,0A11.27,11.27,0,0,1,301.61,264.08Z" transform="translate(-83.05 -213.23)"/><path class="cls-9" d="M303.34,232.52c-1.84,1.32-6.61,4.36-7.72,8.42-.5,1.84-1.1,2.06-1.71,1.81s-1.14-.86-1.68-.95a.55.55,0,0,0-.48.06c-1.21.71-2.93-1.32-3.54-3a1.48,1.48,0,0,0-.15-.31c-.71-1.31-2.42-.58-4.3-1.82a1.73,1.73,0,0,1-.29-.23c-1.53-1.45.16-4.65.29-8.29.11-3.87,3.34-5.39,5.37-6.4s.7-2,2.73-3.05,6.8-.7,6.8-.7c1.63,0,5.08,4.15,5.88,6.59S305.16,231.21,303.34,232.52Z" transform="translate(-83.05 -213.23)"/><path class="cls-10" d="M287,245.16a5.88,5.88,0,0,0,.73,2.86,10.19,10.19,0,0,1-2.94-1.89c-3.72-3.13-6-5.12-4.85-6.69a1.83,1.83,0,0,0-.16-.19,22.57,22.57,0,0,0,3-2.17,5.31,5.31,0,0,0,.63-.62,1.73,1.73,0,0,0,.29.23c1.88,1.24,3.59.51,4.3,1.82A33.33,33.33,0,0,0,287,245.16Z" transform="translate(-83.05 -213.23)"/><path class="cls-11" d="M291.53,248.81a3.58,3.58,0,0,0-.75-.39c-1.17-.44-1.77,0-3-.4a5.88,5.88,0,0,1-.73-2.86,33.33,33.33,0,0,1,1-6.65,1.48,1.48,0,0,1,.15.31c.61,1.72,2.33,3.75,3.54,3a.55.55,0,0,1,.48-.06,27.75,27.75,0,0,0-.91,3.41A6.73,6.73,0,0,0,291.53,248.81Z" transform="translate(-83.05 -213.23)"/><path d="M299.7,234s-4.52,4.31-4.3,5.63,1.88,2.78,4.66,2.3,4.29-4.72,4-6.23a15.52,15.52,0,0,0-1.57-3.69s.06-5.63-3.69-9-6.66-3.75-8.71-3.57-5.2,2.91-6.32,3.27-3.18,3.08-2.76,6,1.76,4.29,2.48,3.69.67-4.24,1.33-5.51a5.15,5.15,0,0,0,.06-3.26s2.42-3.09,4.42-3,5.63,1.27,6.84,2.72,3.57,3.09,4.53,6.3l1,3.2S300.93,232.76,299.7,234Z" transform="translate(-83.05 -213.23)"/><path class="cls-6" d="M319,303.92c-.13-.22-.25-.38-.28-.43A.81.81,0,0,1,319,303.92Z" transform="translate(-83.05 -213.23)"/><path class="cls-12" d="M326.52,307.39c.15,2.55-17,13.76-26.75,17-4.95,1.69-7,.41-7.56-1.55a7.11,7.11,0,0,1,1.6-5.87c2.43-2.67,24.94-15.33,24.94-15.33,4.6-1.07,6.79-.8,7.74.06a.09.09,0,0,0,0,.06,8.82,8.82,0,0,1,.5.8C327.47,304,326.46,306.12,326.52,307.39Z" transform="translate(-83.05 -213.23)"/><path d="M307.45,294.2a11.36,11.36,0,0,1-1.58,1.91,2.92,2.92,0,0,1-1.79.94,9.33,9.33,0,0,0-2.5.77.11.11,0,0,1-.08,0c-.7.24-1.24.21-1.24-.79,0-2.1-5.06-2.84-3.48-5.11s-2.57-10.23-2.86-12.5,1.35-25.14,4-24.69c0,0,5.33,5.76,5.33,7.64s-.09,12.5.79,19.32A52.26,52.26,0,0,0,307.45,294.2Z" transform="translate(-83.05 -213.23)"/><path class="cls-10" d="M310.14,306.6c.06,2.45-2.45.79-4.11.4s-.45-2.32-.45-3.11-1.85-2.44-2.85-4l-1.23-2a.11.11,0,0,0,.08,0,9.33,9.33,0,0,1,2.5-.77,2.92,2.92,0,0,0,1.79-.94c1.21,2.47,3.13,6.25,3.61,6.66C310.2,303.36,310.08,304.15,310.14,306.6Z" transform="translate(-83.05 -213.23)"/><path class="cls-13" d="M311,306.1s-.45.23-.87.5c-.45-.52-.21-.61-1.13-.76-1.26-.21-1.94.29-3,1.16a2.53,2.53,0,0,0-.64,2.39c-.48.18-1.1.88-1.18.68-.34-1,.69-2.47,1.18-3.42a5.23,5.23,0,0,1,2-1.66A3.41,3.41,0,0,1,311,306.1Z" transform="translate(-83.05 -213.23)"/><path class="cls-13" d="M328.86,325.75c-4.65,4.12-33.63,23.13-33.81,16.31l-2.84-19.19c.53,2,2.61,3.24,7.56,1.55,9.73-3.27,26.9-14.48,26.75-17-.06-1.27,1-3.35.5-4.8a19.74,19.74,0,0,1,2.67,7.15C330.05,313.47,333.55,321.63,328.86,325.75Z" transform="translate(-83.05 -213.23)"/><ellipse class="cls-14" cx="452.68" cy="141.98" rx="132.31" ry="53.67"/><ellipse class="cls-15" cx="450.6" cy="140.11" rx="94.98" ry="28.64"/><path class="cls-6" d="M533.34,275.71l0,.06a1.3,1.3,0,0,0-.18.1A1.26,1.26,0,0,0,533.34,275.71Z" transform="translate(-83.05 -213.23)"/><path class="cls-6" d="M556.23,250.27a24.47,24.47,0,0,1,8.27,5.18,8.34,8.34,0,0,0-3.72-.95A10.29,10.29,0,0,0,556.23,250.27Z" transform="translate(-83.05 -213.23)"/><path class="cls-16" d="M544.17,301.89c-.32,1.09-.43,1.92-.06,1.92a31,31,0,0,1,4.12,1c1.34.37,2.79.76,4,1,2,.38,6.31,1.21,9.68,1.63-1.27.08-2.66.13-4.14.16-7.69.13-14.5.39-16.26-1.48a1.4,1.4,0,0,1-.37-.56v0a14.31,14.31,0,0,1-.29-4.33c0-.47,0-.95,0-1.44.08-1.74.23-3.61.36-5.33s.19-3.09.19-4.21c0-4,1-5.89,0-7.81s-1.48-2.79-1.48-2.79-1.13-4.36,0-6.2c.64-1.05,1.08-1.79,1.32-2.24s.27-.5.27-.5l-2.3-1.64s0,0,0,0c2.94,1.88,4.67-.83,6.89,2.62.36.55.61.9.79,1.13.36.45.42.4.47.43v0a0,0,0,0,1,0,0s0,.06,0,.14a.11.11,0,0,1,0,.08c.11.39.34,1.26,1,3.34,1.3,4,1.74,5.45,1.9,5.91a24.06,24.06,0,0,1-.66-5.91c0-.1,0-.21,0-.31a3.08,3.08,0,0,0,0-.51,3.84,3.84,0,0,0-.12-.52,12.65,12.65,0,0,0-1.17-2.56,2.21,2.21,0,0,1-.18-.34,2.73,2.73,0,0,1-.48-1.38c.13-1,0-2.9,2.72-4a4.36,4.36,0,0,1,2.45-.29c1.18.17,2.05.62,3.22-.32a3.4,3.4,0,0,0,.29-.26,7.72,7.72,0,0,1-.85,3.53,3.42,3.42,0,0,1-.44.49,5.38,5.38,0,0,1-2.12,1.16s-.1,0-.13.05a2.4,2.4,0,0,1,.24.22,3,3,0,0,1,.88,2.13c0,2.3.31,3.2,4.24,5.73a32.14,32.14,0,0,0,8.85,3.21l-7,7.25,2,4.14v0l2.27,4.77a28.47,28.47,0,0,1-4.77,0c-.79-.13-2.54-.36-4.41-.6l-.65-.1c-1.63-.21-3.27-.43-4.28-.63-2.07-.4-3.56-1.45-4.1-.95a.68.68,0,0,0-.14.25c-.15.38-.63,1.59-1.1,2.88-.25.69-.5,1.42-.67,2.06Z" transform="translate(-83.05 -213.23)"/><path class="cls-6" d="M573.89,281.12c-.21-1.93-.38-3.64-.47-4.4A34,34,0,0,1,573.89,281.12Z" transform="translate(-83.05 -213.23)"/><path class="cls-6" d="M573.41,276.53a2,2,0,0,0,0-.24l0,0S573.39,276.37,573.41,276.53Z" transform="translate(-83.05 -213.23)"/><path class="cls-17" d="M537.27,281.51a63.29,63.29,0,0,1-5.06,4.17c-1.82,1.22-4.78,2.51-6,2.51s-2.21-.32-2.14-1.54a13.92,13.92,0,0,1,1.27-4.1,24.27,24.27,0,0,1,3.06-3.31c1.08-.86,4.79-3.36,4.79-3.36h0c.2-.13,1.68-1,2.79.9S535.55,282.62,537.27,281.51Z" transform="translate(-83.05 -213.23)"/><path d="M560.72,257.52a3.39,3.39,0,0,0-.34.5,4.8,4.8,0,0,0-.32.54,40.72,40.72,0,0,0-2,4.79c-.16.4-.33.77-.49,1.13l-.08.16-.24.48a3,3,0,0,1-.26.42,3.73,3.73,0,0,1-.25.39,1.87,1.87,0,0,1-.28.33,3.4,3.4,0,0,1-.29.26c-1.17.94-2,.49-3.22.32a4.36,4.36,0,0,0-2.45.29c-2.72,1.12-2.59,3-2.72,4a2.73,2.73,0,0,0,.48,1.38,2.21,2.21,0,0,0,.18.34,12.65,12.65,0,0,1,1.17,2.56,3.84,3.84,0,0,1,.12.52,3.08,3.08,0,0,1,0,.51c0,.1,0,.21,0,.31a24.06,24.06,0,0,0,.66,5.91c-.16-.46-.6-1.87-1.9-5.91-.66-2.08-.89-2.95-1-3.34a.11.11,0,0,0,0-.08c0-.08,0-.11,0-.14a0,0,0,0,0,0,0v0s-.11,0-.47-.43c-.18-.23-.43-.58-.79-1.13-2.22-3.45-3.95-.74-6.89-2.62l-.63-.41h0c-1.3-.86-1.71-1.15-1.84-1.24v0s-.06,0,0,0a21.94,21.94,0,0,1,.26,4.59c-.48.48-.93.93-1.35,1.37,1.16-1.31-.27-4.69-.65-8.59,0-.31,0-.58-.08-.85a15.42,15.42,0,0,1,.08-4.45c1.37-8.52,9.77-11.12,12.78-11.49a8.12,8.12,0,0,1,3.67.48c1.58.52,3,1.33,4.37,1.76l.39.15a9.7,9.7,0,0,1,2.17,1.38,9.21,9.21,0,0,1,2.37,2.85A2.77,2.77,0,0,1,560.72,257.52Z" transform="translate(-83.05 -213.23)"/><path class="cls-6" d="M536.77,267.26v0C536.71,267.23,536.77,267.26,536.77,267.26Z" transform="translate(-83.05 -213.23)"/><path d="M552.56,246s-3.28,5.75,0,4.92,7.65,1.62,10.74,2.23,3.33,3.83,6.42,3.83a25.78,25.78,0,0,0,6.78-1.23l3-2s-5.8.62-6.3-.25-1.11-3.18-3.21-3.44-3-3.59-5.67-4.08S553.18,243,552.56,246Z" transform="translate(-83.05 -213.23)"/><path class="cls-18" d="M551.48,248.36l-1.06.76s-.2,1.62,1.34,1.66l1.54.05.28-.71S550.71,250.12,551.48,248.36Z" transform="translate(-83.05 -213.23)"/><path class="cls-17" d="M546.94,272.71a2.38,2.38,0,0,1-1.45-.23c-1.27-.83-1.13.29-3.27-.77a4.83,4.83,0,0,1-1-.58,10.53,10.53,0,0,1-2.14-2,7.75,7.75,0,0,1-.5-.61l.63.41c2.94,1.88,4.67-.83,6.89,2.62C546.51,272.13,546.76,272.48,546.94,272.71Z" transform="translate(-83.05 -213.23)"/><path class="cls-6" d="M552.89,271.49a2.4,2.4,0,0,1,.24.22,1.08,1.08,0,0,0-.61-.14l.22-.05.13,0,.15,0S552.92,271.47,552.89,271.49Z" transform="translate(-83.05 -213.23)"/><path class="cls-6" d="M560.68,258.45l-.62.11a4.8,4.8,0,0,1,.32-.54C560.48,258.16,560.57,258.31,560.68,258.45Z" transform="translate(-83.05 -213.23)"/><path class="cls-17" d="M556.43,266.26a7.72,7.72,0,0,1-.85,3.53,3.42,3.42,0,0,1-.44.49,5.38,5.38,0,0,1-2.12,1.16s-.1,0-.13.05a.57.57,0,0,0-.15,0l-.22.05c-.68,0-2.58.66-4.29,1a2.73,2.73,0,0,1-.48-1.38c.13-1,0-2.9,2.72-4a4.36,4.36,0,0,1,2.45-.29c1.18.17,2.05.62,3.22-.32A3.4,3.4,0,0,0,556.43,266.26Z" transform="translate(-83.05 -213.23)"/><path class="cls-8" d="M569,327.05c-2.46,0-4.82,2.78-7.22,5.45-2.06,2.32-4.19,4.61-6.46,4.93-4.9.71-4.3,1.58-10.36,6.33-4.62,3.61-6.72,4-10.81.52-1.29-1.08-2.79-2.55-4.61-4.4-.66-.68-1.22-1.29-1.7-1.82-5-5.7-.17-4.59,2.81-8.27,3.28-4,7.11-14.25,9.56-18.86s.9-5.45.9-5.45l28.62-2.77s7.63,5.77,9.94,13S573.62,327.05,569,327.05Z" transform="translate(-83.05 -213.23)"/><path class="cls-6" d="M500.86,353.74c-.65.12-1.15.24-1.44.29A4.25,4.25,0,0,1,500.86,353.74Z" transform="translate(-83.05 -213.23)"/><path class="cls-11" d="M534.16,344.28c-3.17,2.59-9.49,7.8-10.73,8.68a2.52,2.52,0,0,0-.84,1.16l-1.91-.08c-1.92-.08-3.11.32-3.68-.4s1.68-1,1.36-1.84a13.63,13.63,0,0,0-.89-2.66,18.5,18.5,0,0,0,4.4-2.93c1.27-1.11,4.43-5.78,6-8.15.48.53,1,1.14,1.7,1.82C531.37,341.73,532.87,343.2,534.16,344.28Z" transform="translate(-83.05 -213.23)"/><path class="cls-6" d="M556.22,347.84a19.42,19.42,0,0,1-2.29.21C554.46,348,555.23,347.92,556.22,347.84Z" transform="translate(-83.05 -213.23)"/><path class="cls-6" d="M568.75,346.9c-1.58.21-3.45.28-5.33.34C565.06,347.11,566.85,347,568.75,346.9Z" transform="translate(-83.05 -213.23)"/><path class="cls-11" d="M572.67,339.94c-1.44-.24-4.61,1.31-6.29,1.18-2-.18-.27-1.68-1.27-1.68a2,2,0,0,1-1.79-1,3.67,3.67,0,0,0,.18-1.2,20.24,20.24,0,0,0-1.71-4.75c2.4-2.67,4.76-5.45,7.22-5.45.76,2.58,3.06,10.51,3.53,12.44A3.33,3.33,0,0,0,572.67,339.94Z" transform="translate(-83.05 -213.23)"/><path class="cls-6" d="M558.36,340.62c-1,.24-2.11.5-3.09.68C556.27,341.09,557.36,340.85,558.36,340.62Z" transform="translate(-83.05 -213.23)"/><path class="cls-6" d="M563.4,347.24c-2.94.21-5.41.42-7.18.6l.66-.11A48.66,48.66,0,0,1,563.4,347.24Z" transform="translate(-83.05 -213.23)"/><path class="cls-6" d="M529.38,282.88h-8.71c-1,0-2.54.08-1.45,1.57s1.37,3.11,2.22,3.11,11.22,0,11.75-.37-.91-3.54-.91-3.54Z" transform="translate(-83.05 -213.23)"/><path class="cls-17" d="M544.16,301.88a5,5,0,0,1-3.57-.87c-2.13-1.26-2.18-3.77-2-5s-3.78-4.92-2.85-5.08,1.26-.11,2.3,1.26,1,2.29,2.3,2.29,1.86-.82,3.17,0a20.19,20.19,0,0,1,3,2.52Z" transform="translate(-83.05 -213.23)"/><g class="cls-19"><path class="cls-4" d="M775.47,386.8a10,10,0,0,1-11.94,4.68c-2.37-.85-4.33-2.61-6.64-3.64-2.59-1.16-5.51-1.35-8.38-1.51l-19-1.08c-2.48-.15-5.18-.24-7.24,1.14l-.08.07a19,19,0,0,0-5.48,2.69c-2.09,1.38-4.14,2.87-6.12,4.41a11.52,11.52,0,0,1-2.37,1.61,42.66,42.66,0,0,1-1.5,6.51c-.51,1.73-1.17,3.6-2.69,4.6-1,.66-2.54.72-3.22-.26-.42-.6-.43-1.45-1-1.92a7.09,7.09,0,0,0-1.43-.64,3.13,3.13,0,0,1-1.29-2.53,11.66,11.66,0,0,1,.72-5.42c.13-.35.29-.69.44-1-8.51-.58-17-1.16-25.54-1.76a9.65,9.65,0,0,1-3.42.5c-6.26-.16-25.81-2.68-31.91-4.06-10.14-2.08-20.58-4.27-29.1-10.15-2.21-1.53-4.27-3.29-6.58-4.72a53,53,0,0,0-11-4.67c-5.35-1.83-10.86-3.68-16.53-3.58-2.49,0-5,.45-7.52.21-2.87-.29-5.58-1.4-8.35-2.27a45.35,45.35,0,0,0-19-1.71c-2.84.37-5.8,1-8.45-.08a9.54,9.54,0,0,0-2.49-.9c-2.73-.29-4.68,3.1-7.4,3.1-1.87,0-3.38-1.67-3.85-3.46a12.53,12.53,0,0,1,.21-5.51l.29-.31c2.09-3.48,7-3.67,11-2.91,5.59,1.05,10.94,3.16,16.43,4.69,12.12,3.36,24.8,4,37.35,4.54,12.89.56,25.81,1.1,38.7.27,1.43-.09,2.87-.19,4.33-.32C614.61,357,603.57,352.56,592,351c-6.66-.91-13.41-.88-20.09-1.27-4.52-.26-9-.69-13.44-1.32a5.25,5.25,0,0,1-2.5-.81,1.86,1.86,0,0,1-.61-2.35,2.72,2.72,0,0,1,1.34-.85c6-2.32,12.1-4.69,18.49-4.8s12.78,2,19,3.82a162.27,162.27,0,0,0,29.3,5.44c2.25.19,4.49.36,6.75.53a20.14,20.14,0,0,1,4.77-7.83,7.71,7.71,0,0,1,2.94-2c3-1,6.13,1.26,8.24,3.64a35.29,35.29,0,0,1,4.4,6.19c.74,1.31,1.4,2.69,2.15,4q5.17.84,10.28,2.09c2.52.62,5.13,1.34,7.16,3,22.76,8.55,49.33-2.37,72.55,5.22,3.2,1.06,7.59,2,9.21-.94a16.62,16.62,0,0,1-9.34-10.84c4,.28,8,.6,11.68,2.16s6.93,4.59,7.69,8.49c.37,2,.11,4.11,1,5.9,1.63,3.41,6.2,3.91,9.33,6A10,10,0,0,1,775.47,386.8Z" transform="translate(-83.05 -213.23)"/></g><path class="cls-20" d="M537,271.89a3.5,3.5,0,0,1-.26,1.05,15.16,15.16,0,0,1-1.86,2.75l-.49.58a4.08,4.08,0,0,1,.08-.69,4.48,4.48,0,0,1,1.15-2.27l0-.05C536.1,272.82,536.55,272.37,537,271.89Z" transform="translate(-83.05 -213.23)"/><path class="cls-21" d="M535.65,273.31a4.48,4.48,0,0,0-1.15,2.27,1.73,1.73,0,0,0-1.12.19l0-.06C533.7,275.34,534.54,274.45,535.65,273.31Z" transform="translate(-83.05 -213.23)"/><path class="cls-22" d="M540,273.37c-1.13,1.84,0,6.2,0,6.2s-.89.73-2.64,1.9l0,0c-1.72,1.11-.11-2.69-1.28-4.74a2.46,2.46,0,0,0-1.08-1.08,15.16,15.16,0,0,0,1.86-2.75,3.5,3.5,0,0,0,.26-1.05l.42-.42a14.51,14.51,0,0,0,1.68-2.31,10.53,10.53,0,0,0,2.14,2C541,271.58,540.59,272.32,540,273.37Z" transform="translate(-83.05 -213.23)"/><path class="cls-22" d="M561.79,291.42s1.21,3.53-1.21,5a17.81,17.81,0,0,1-6.1,1.86l8.94,1.4,1.79-.69Z" transform="translate(-83.05 -213.23)"/><path class="cls-16" d="M575.16,302.48c-.78,3.53-6.79,5-9.71,5.16a24.6,24.6,0,0,1-3.54-.26c-3.37-.42-7.66-1.25-9.69-1.62-2.91-.54-7.15-1.95-8.12-1.95s1.5-5.92,1.85-6.88,1.94.25,4.24.71,7.77,1,9.35,1.32a28.49,28.49,0,0,0,4.77,0L560.07,290l7-7.25c3,.69,5.87,1,7.06.5.32,2.5.69,5,1,6.32A35.28,35.28,0,0,1,575.16,302.48Z" transform="translate(-83.05 -213.23)"/><path class="cls-23" d="M563.81,270c-1.69,3.69-6.32,4.13-7.94,3.69-1.32-.34-2-1.56-2.74-2a2.4,2.4,0,0,0-.24-.22s.08,0,.13-.05a5.38,5.38,0,0,0,2.12-1.16,3.42,3.42,0,0,0,.44-.49,7.72,7.72,0,0,0,.85-3.53,1.87,1.87,0,0,0,.28-.33,2,2,0,0,0,.25-.39,3,3,0,0,0,.26-.42l.24-.48.08-.16a11.65,11.65,0,0,0,.49-1.13,40.72,40.72,0,0,1,2-4.79l.62-.11a4.11,4.11,0,0,0,1.86,1.47c1.71.56,1.85,1.27,2.35,3S565.52,266.31,563.81,270Z" transform="translate(-83.05 -213.23)"/><path class="cls-22" d="M574.15,283.28c-1.19.5-4,.19-7-.5a32.14,32.14,0,0,1-8.85-3.21c-3.93-2.53-4.24-3.43-4.24-5.73a3,3,0,0,0-.88-2.13c.79.42,1.42,1.64,2.74,2,1.62.44,6.25,0,7.94-3.69s1.56-5.39,1.08-7.1-.64-2.42-2.35-3a4.11,4.11,0,0,1-1.86-1.47l-.62.11a4.8,4.8,0,0,1,.32-.54,3.39,3.39,0,0,1,.34-.5,2.77,2.77,0,0,0,.06-3,8.31,8.31,0,0,1,3.72.95,14.15,14.15,0,0,1,1.82,2.1,13.1,13.1,0,0,1,1,1.56,55.73,55.73,0,0,1,6,17.18s0,.06,0,.09a.76.76,0,0,0,0,.15.72.72,0,0,0,0,.19c.08.76.26,2.47.47,4.4a.71.71,0,0,1,0,.14C574,281.91,574.07,282.6,574.15,283.28Z" transform="translate(-83.05 -213.23)"/><polygon class="cls-24" points="436.37 70.11 438.35 73.69 449.92 73.69 448.51 69.87 436.37 70.11"/><path class="cls-17" d="M530.19,281.87s-1.25,1.41-1.5,1.58-.44.92-.88,1.08-.32.73.36.69,1.9,0,2.49-.93a18.92,18.92,0,0,1,1.7-2.09Z" transform="translate(-83.05 -213.23)"/><ellipse class="cls-25" cx="441.14" cy="71.53" rx="2.5" ry="1.02"/><path class="cls-26" d="M522.59,354.12c-.51,1.36-.34,3.23-1.62,4.4-1.74,1.58-6.77,1.66-9.32,1.89s-7.36,1.27-8.34,1.27l-.26,0c-.73-.12-2.72-.53-3.63-1.69-1.12-1.45-2.14-5.55,0-5.92h0c.29,0,.79-.17,1.44-.29a23.06,23.06,0,0,1,2.53-.1c1.43,0,7.18-2,10.68-3.21l.1,0,.06,0h0c.21-.19,2-1.79,2.75-1.61a.89.89,0,0,1,.47.38,13.63,13.63,0,0,1,.89,2.66c.32.87-1.92,1.11-1.36,1.84s1.76.32,3.68.4Z" transform="translate(-83.05 -213.23)"/><path class="cls-26" d="M568.82,346.9h-.07c-1.9.1-3.69.21-5.33.34h0a48.66,48.66,0,0,0-6.52.49l-.66.11c-1,.08-1.76.16-2.29.21h-.1c-2,.23-8.39.84-4.4-4.1a6.75,6.75,0,0,1,1.91-1.68l0,0,.3-.21a.92.92,0,0,1,.29-.17,1.79,1.79,0,0,1,.46-.16,9.47,9.47,0,0,0,1.19-.12,6.46,6.46,0,0,0,.74-.13c.29,0,.59-.11.92-.17,1-.18,2.08-.44,3.09-.68l.16,0,1.71-.36a9.56,9.56,0,0,1,1.19-.17,1.88,1.88,0,0,0,1.11-.39s.68-2.3.7-1.61a.92.92,0,0,0,.09.39,2,2,0,0,0,1.79,1c1,0-.77,1.5,1.27,1.68,1.68.13,4.85-1.42,6.29-1.18a.79.79,0,0,1,.67.5C573.89,342,576.18,346.5,568.82,346.9Z" transform="translate(-83.05 -213.23)"/></svg>