<svg id="Layer_1" data-name="Layer 1" xmlns="http://www.w3.org/2000/svg" xmlns:xlink="http://www.w3.org/1999/xlink" viewBox="0 0 514.69 376.34"><defs><style>.cls-1{opacity:0.7;}.cls-2{fill:url(#linear-gradient);}.cls-3{fill:#db7163;}.cls-4,.cls-5{fill:#c74b42;}.cls-6{fill:#111519;}.cls-7{fill:#242c33;}.cls-8{fill:#b27e5b;}.cls-9{fill:#926140;}.cls-10{fill:#fff;}.cls-11{fill:#afd1f0;}.cls-12{fill:#ba8057;}.cls-13{fill:#7c4d2c;}</style><linearGradient id="linear-gradient" x1="83.05" y1="381.93" x2="84.83" y2="381.93" gradientUnits="userSpaceOnUse"><stop offset="0" stop-color="#fff"/><stop offset="0.16" stop-color="#fffdfb"/><stop offset="0.32" stop-color="#fef8ee"/><stop offset="0.49" stop-color="#fdeed9"/><stop offset="0.65" stop-color="#fbe1bc"/><stop offset="0.83" stop-color="#f8d196"/><stop offset="1" stop-color="#f5bd68"/><stop offset="1" stop-color="#f5bc67"/></linearGradient></defs><g class="cls-1"><path class="cls-2" d="M84.83,429.77l-1.78-95.68" transform="translate(-83.05 -134.7)"/></g><path class="cls-3" d="M597,427.79c-.1-.65-.21-1.32-.34-2v0c-2.38-13.3-8.25-25.64-15.75-37.06a186.31,186.31,0,0,0-13.15-17.5c-13.81-16.48-29.53-31.4-41.88-49-22-31.33-32-69.28-48.93-103.62-14.29-29-36.31-57.3-65.64-68.81a78.26,78.26,0,0,0-16.8-4.52c-9.37-1.42-19.12-1-28,2.27a47.38,47.38,0,0,0-10.61,5.59,53.42,53.42,0,0,0-5.51,4.3A82.3,82.3,0,0,0,339,170c-1.88,2.49-3.65,5.06-5.32,7.67l-.28.45c-.56.87-1.1,1.73-1.62,2.6-2.4,3.93-4.67,8-7,12-.57,1.06-1.19,2.12-1.78,3.16-5.2,9.16-10.58,18.19-17.64,26-1.56,1.73-3.18,3.37-4.88,4.95-16.1,15.1-37.42,23.95-56.46,35.55a207.35,207.35,0,0,0-76.49,83c-7.71,15.25-13.58,32.1-12.07,49.1.39,4.39,1.31,8.85,3.63,12.59,2.82,4.52,7.45,7.63,12.26,10,27.28,13.33,60.61,5.72,89.17,16a93.23,93.23,0,0,1,15.2,7.23c9.4,5.42,18.21,12,27.3,18a225.33,225.33,0,0,0,28.3,15.84,184.15,184.15,0,0,0,34.47,12.25q6.22,1.51,12.51,2.57a221,221,0,0,0,32.18,3c7.71.21,15.44.08,23.18-.26,13.34-.56,26.71-1.75,40.11-3,4.77-.44,9.52-.89,14.29-1.32,14.61-1.32,29.23-2.46,43.77-2.74a258.44,258.44,0,0,1,40.88,2.16l1.54-2.55a45.06,45.06,0,0,0,15-15.14C596.55,457.12,599.16,441.85,597,427.79Zm-138.41,33-2.85,3.7-13.09,16.89c4.37,1.16,7.58,2.79,7.33,3.84s-4.52,1.11-9.53-.06a29.87,29.87,0,0,1-6.52-2.23c-1.39-.71-2.18-1.4-2.05-1.92s.88-.73,2.07-.8a25,25,0,0,1,6.43.63l-3-22.06-.39-3a11.37,11.37,0,1,1,22.74,0,11.19,11.19,0,0,1-1.14,4.92.1.1,0,0,1,0,0Zm-10.32-7.32a2.43,2.43,0,1,0,2.42,2.42A2.43,2.43,0,0,0,448.29,453.47Z" transform="translate(-83.05 -134.7)"/><path class="cls-4" d="M395,240.26c-.1-.34-.6-2-1.36-4.42l.54.06A39.71,39.71,0,0,1,395,240.26Z" transform="translate(-83.05 -134.7)"/><path class="cls-5" d="M358.11,194.56a3.14,3.14,0,0,0,.17.84A.52.52,0,0,1,358.11,194.56Z" transform="translate(-83.05 -134.7)"/><path class="cls-5" d="M384.57,199c-.24-.35-.5-.75-.76-1.14a3.67,3.67,0,0,1-.23-.8Z" transform="translate(-83.05 -134.7)"/><path class="cls-5" d="M358.28,195.4a.52.52,0,0,1-.17-.84A3.14,3.14,0,0,0,358.28,195.4Z" transform="translate(-83.05 -134.7)"/><path class="cls-5" d="M395,240.26c-.1-.34-.6-2-1.36-4.42l.54.06A39.71,39.71,0,0,1,395,240.26Z" transform="translate(-83.05 -134.7)"/><path class="cls-4" d="M580.93,388.74l-4.23-1C574,389,567.88,386,565.19,385c-.27-.1-.57-.19-.89-.28l-4.39-1.06c1.45.28,3,.65,4.39,1.06l12.4,3A2.62,2.62,0,0,0,578,385a19.46,19.46,0,0,1-5.27-3.17c-2.46-2.1-7.73-7.73-10.54-8.42s-11.06-3-12.46-4.91-4.58-4.4-11.6-6.85a108.55,108.55,0,0,0-15.74-3.73c-.54-4.67-2.19-7.22-10.39-7.22-10.76,0-33.24-15.16-39.1-17.6s-15.16-29.33-21-43-17.59-30.29-22.47-35.19-19.07-17.58-30.32-18.56l-4.91-.45a39.71,39.71,0,0,1,.82,4.36c-.1-.34-.6-2-1.36-4.42l.54.06c-.11-.49-.21-1-.32-1.45-1.23-5.8,0-10.75,2.07-12.39a3.93,3.93,0,0,1,1.45-.61,2.45,2.45,0,0,1,.37-.08,4,4,0,0,0,1.85,1.34c3.66.64,7-.16,8.71-2.3s3.54-12.35,3.54-16.07a27.42,27.42,0,0,0-1.32-7.6c.22-1.32,1.1-1.08,2.32-1.08,1.64,0,3.1-1.25,3.51-3.52s-4.14-8.66-5.16-12,1.43-5.79,1.43-7.43a94.37,94.37,0,0,0-3.7-16.31,22.05,22.05,0,0,0,2.4-6.63,78.26,78.26,0,0,0-16.8-4.52c-9.37-1.42-19.12-1-28,2.27a47.38,47.38,0,0,0-10.61,5.59,53.42,53.42,0,0,0-5.51,4.3A82.3,82.3,0,0,0,339,170a29.83,29.83,0,0,0-.22,6h0c0,.1,0,.19,0,.3,0,.5.07,1,.15,1.49,1.12,9.55,6.7,15.83,8.21,22.55a3,3,0,0,1,.09.41c.95,4.71,4.21,10.56,7.49,13v0a6.58,6.58,0,0,0,1,.65c.11.07.23.11.34.17v10a6.42,6.42,0,0,1-2.44,5.46s-7.82,5.43-15.25,10.4l-.51.34c-.14.11-.31.2-.48.32-4.79,3.2-9.25,6.07-11.14,7a9.35,9.35,0,0,0-2,1.41c-2.89,2.59-6.68,8-9.31,15.72a61.11,61.11,0,0,0-2.9,24.89c2,23.95,17.11,52.31,17.11,73.33,0,20.39-8.29,40.82-1.6,50.47a9.19,9.19,0,0,0,.63.84,11,11,0,0,0,4.52,2.68A68.42,68.42,0,0,0,331.42,429c-.07,1.28-.09,2.64-.09,4.08v41a184.15,184.15,0,0,0,34.47,12.25q6.22,1.51,12.51,2.57a221,221,0,0,0,32.18,3c7.71.21,15.44.08,23.18-.26.17-2.77.26-5.7.28-8.69-1.39-.71-2.18-1.4-2.05-1.92s.88-.73,2.07-.8c0-18.21-2.2-39.11-3.91-52.81-.17-1.29-.32-2.52-.47-3.67a8.4,8.4,0,0,0,2.74-1.58c4.56-3.91,3.43-11.94,3-18.07a30.88,30.88,0,0,1-.1-4c.28-4.41.4-6.33.45-7.17l0-.65s.22.15.65.39c3.09,1.88,16.35,9.57,22.81,7.43a9.32,9.32,0,0,0,1.4-.58,9.58,9.58,0,0,0,1.84-1.15,29.65,29.65,0,0,0,5.4,2.16c1.42.28,2.27,1.17,3.41,3.13l-.15.89v0l-.43,2.79L470,412l-.06.39-2.66,18.41-.82,5.65s0,0,0,0l-.11.81-6.88,47.58,14.34,3.76c4.77-.44,9.52-.89,14.29-1.32,14.61-1.32,29.23-2.46,43.77-2.74a258.44,258.44,0,0,1,40.88,2.16l1.54-2.55a45.06,45.06,0,0,0,15-15.14l7.45-43.23v0C594.3,412.5,588.43,400.16,580.93,388.74ZM358.11,194.56a3.14,3.14,0,0,0,.17.84A.52.52,0,0,1,358.11,194.56ZM384.57,199c-.24-.35-.5-.75-.76-1.14a3.67,3.67,0,0,1-.23-.8ZM503.89,453.06a2.42,2.42,0,1,1,2.42-2.42A2.42,2.42,0,0,1,503.89,453.06Zm10.34,2.46a.06.06,0,0,0,0,0h0Z" transform="translate(-83.05 -134.7)"/><path class="cls-5" d="M576.7,387.72C574,389,567.88,386,565.19,385c-.27-.1-.57-.19-.89-.28Z" transform="translate(-83.05 -134.7)"/><path class="cls-5" d="M576.7,387.72C574,389,567.88,386,565.19,385c-.27-.1-.57-.19-.89-.28Z" transform="translate(-83.05 -134.7)"/><path class="cls-5" d="M506.31,450.64a2.42,2.42,0,1,1-2.42-2.42A2.42,2.42,0,0,1,506.31,450.64Z" transform="translate(-83.05 -134.7)"/><path class="cls-5" d="M514.27,455.48l0,0a.06.06,0,0,0,0,0Z" transform="translate(-83.05 -134.7)"/><path class="cls-4" d="M506.31,450.64a2.42,2.42,0,1,1-2.42-2.42A2.42,2.42,0,0,1,506.31,450.64Z" transform="translate(-83.05 -134.7)"/><path class="cls-4" d="M514.27,455.48l0,0a.06.06,0,0,0,0,0Z" transform="translate(-83.05 -134.7)"/><path class="cls-4" d="M506.31,450.64a2.42,2.42,0,1,1-2.42-2.42A2.42,2.42,0,0,1,506.31,450.64Z" transform="translate(-83.05 -134.7)"/><path class="cls-6" d="M378.31,488.9a136.11,136.11,0,0,1-.76,14H275.73v-64.5a75.92,75.92,0,0,1,1.43-15.7c2.16-10,5.92-12.51,5.92-12.51l12.57,1.06,32,2.68,37.46,3.15,7.3.61S373.06,422,374,429C375.82,443.23,378.61,468.27,378.31,488.9Z" transform="translate(-83.05 -134.7)"/><path class="cls-7" d="M444,389c-11.24,0-33.55-19.85-46.26-19.85s-15.64-9.78-15.64-9.78l.49,11.73S397.75,379,410,383.83c5.81,2.33,7.86,3.43,8,4.33h0c.19,1-1.87,1.69-3.66,3.48-2.82,2.82-3.31,8.63-7.5,12a10.46,10.46,0,0,1-3.25,1.74c-7.33,2.44-23.46-7.82-23.46-7.82s-36.94-13-22.44-3.51l5.56,9.06c.19,8.65,2.85,19.29,5.07,26.7-11.83,0-50.75-.3-75.38-3.7,1.87-8.61,4.82-24.49,3.38-33.42-2-12.68,16.08-18.57,16.08-22.19s-4.08-5.44-13.59-14.95a156,156,0,0,0-18.57-15.85A132.9,132.9,0,0,1,268,293.46c-.93-13.22-5.5-19.9-8.66-23,3.3-9.65,8.4-15.69,11.29-17.13,4.88-2.44,27.37-18.08,27.37-18.08,7.82-1,18.08,5.86,30.3,5.86s3.91-.49,15.15.49,25.42,13.68,30.3,18.57,16.62,21.51,22.49,35.2,15.15,40.56,21,43S445.64,356,456.4,356s10.27,4.4,10.75,12.22S455.26,389,444,389Z" transform="translate(-83.05 -134.7)"/><path class="cls-6" d="M312.42,370.46c0,3.62-18.12,9.51-16.08,22.19,1.44,8.93-1.51,24.81-3.38,33.42-10.27-1.41-18.06-3.37-20.34-6.07-7.82-9.29,1-30.3,1-51.32s-15.15-49.36-17.11-73.31a61.52,61.52,0,0,1,2.89-24.91c3.16,3.1,7.73,9.78,8.66,23a132.9,132.9,0,0,0,12.22,46.2,156,156,0,0,1,18.57,15.85C308.34,365,312.42,366.83,312.42,370.46Z" transform="translate(-83.05 -134.7)"/><path class="cls-6" d="M368.91,429.77h-.57c-2.22-7.41-4.88-18-5.07-26.7L357.71,394c-14.5-9.52,22.44,3.51,22.44,3.51l-.49,7.82C379.18,413.16,384.55,429.77,368.91,429.77Z" transform="translate(-83.05 -134.7)"/><path class="cls-8" d="M360.74,197.4c-.41,2.27-1.86,3.5-3.5,3.5s-2.69-.41-2.27,3.1-.42,8.05-.21,10.73-1.68,9.68-3.75,10.51c-1.73.69-6.1.65-9.25,1.45-1.58-.9-3.89-2.24-6.53-3.81-4.9-2.92-15.66-11.82-16-12.1.16.25,4.53,6.79,9.41,10.62s10.76,24.17,10.76,24.17c.37,3.18-.18,5.47-3.63,5.47-5.36,0-14.23-2.06-22.07-3.92s-17.5-9.51-15.66-11.87a6.39,6.39,0,0,0,2.45-5.46V212.46s1.28-9.9-2.45-16.51-7.86-15.88-3.12-17.95,7.43-.62,10.32,1.86,4.45,6,7.18,5.57,4.17-7.43,5.82-15.68-3.51-10.93.83-13.82,14.23-3.51,21-2.69,11.56,3.92,13.2,8.46A94,94,0,0,1,357,178c0,1.65-2.48,4.13-1.45,7.43S361.15,195.13,360.74,197.4Z" transform="translate(-83.05 -134.7)"/><path class="cls-9" d="M302.49,199.8s-1,1.21,2.41,1.21,3.87-.6,3.87-.6l-.95,5.59S302.75,203.16,302.49,199.8Z" transform="translate(-83.05 -134.7)"/><path class="cls-9" d="M306.79,188.11s-.35,2-1.72,1-.26-4.47-1.89-4.12-3.61,0-1.38,2.75,5,8.17,5.33,6.79S306.79,188.11,306.79,188.11Z" transform="translate(-83.05 -134.7)"/><path class="cls-9" d="M301.54,180.8s-2.92-2.49-4.81,0,0,5.68,0,5.68-1.79-5.33,2-5.33S301.54,180.8,301.54,180.8Z" transform="translate(-83.05 -134.7)"/><path class="cls-10" d="M354.92,202a27.56,27.56,0,0,1,1.31,7.61c0,3.73-1.88,14-3.53,16.07s-5,3-8.71,2.3-14.16-22-14.16-22l-4.75-9.33H330l4.66,1Z" transform="translate(-83.05 -134.7)"/><path class="cls-11" d="M305.24,179.86s7.52,5.79,12.45,10,13.42,17.65,13.42,17.65-9.32-9.65,3.56-9.86C334.67,197.68,329.49,196.82,305.24,179.86Z" transform="translate(-83.05 -134.7)"/><path class="cls-9" d="M355.77,199.15s.33-.89-1.16-.94a15.86,15.86,0,0,0-3.6.47,3.55,3.55,0,0,1,2.66.47A1.75,1.75,0,0,0,355.77,199.15Z" transform="translate(-83.05 -134.7)"/><path class="cls-9" d="M341.76,226.69a3.83,3.83,0,0,0-1.45.63c-2.06,1.64-3.29,6.6-2.06,12.37.45,2.07.94,4.11,1.15,5.88,0,0-5.78-20.27-10.76-24.17s-9.25-10.37-9.41-10.62c.34.28,11.1,9.18,16,12.1C337.87,224.45,340.18,225.79,341.76,226.69Z" transform="translate(-83.05 -134.7)"/><path class="cls-7" d="M353.31,161.7c-1.64-4.54-6.39-7.63-13.2-8.46s-16.71-.2-21,2.69.82,5.57-.83,13.82-3.1,15.27-5.82,15.68-4.29-3.09-7.18-5.57-5.57-3.92-10.32-1.86S294.3,189.35,298,196s2.45,16.51,2.45,16.51v7.37c-3.68-1.62-7.79-8.46-8.86-13.83-1.44-7.23-7.75-13.84-8.46-24.46s3.6-11.88,2.69-23,9.55-16.2,12.91-20.16,15.54-3.07,29.58-3.6,13.14,5.4,22.66,10.08S353.31,161.7,353.31,161.7Z" transform="translate(-83.05 -134.7)"/><path class="cls-8" d="M522.4,390.27a19.74,19.74,0,0,1-5.27-3.16c-2.46-2.11-7.73-7.72-10.54-8.43s-11.06-3-12.47-4.91-4.56-4.39-11.59-6.85-17.73-4-17.73-4l-10.94,23.23,25.16.83,20.9,1.23a66.17,66.17,0,0,1,9.66,2.1C513.09,391.5,522.57,396.42,522.4,390.27Z" transform="translate(-83.05 -134.7)"/><path class="cls-7" d="M332.37,178.23a36.54,36.54,0,0,1,8.29-2.63c3.81-.56,8.59-.47,8.5,2.06s.38,1.6-3.57,1-5.25-.94-7.31-.94S332.37,178.23,332.37,178.23Z" transform="translate(-83.05 -134.7)"/><polygon class="cls-12" points="370.81 251.41 334.03 265.19 419.05 284.7 466.79 265.19 388.57 246.37 370.81 251.41"/><polygon class="cls-9" points="414.52 303.67 419.05 284.7 466.79 265.19 463.3 284.43 414.52 303.67"/><polygon class="cls-13" points="334.03 265.19 331.24 282.96 414.52 303.67 419.05 284.7 334.03 265.19"/><path class="cls-9" d="M467.25,430.82l-4.4-1.09-9.23-2.29h0l-1-.27-20.24-5L423,419.82h0l-8.69-2.16-10.45,72.47,6.65,1.75,73,19.16,4.6-23.72,9.51-48.95ZM431.9,481c.12-.47.88-.73,2.07-.8a25,25,0,0,1,6.43.63l-3-22.06-.39-3a11.37,11.37,0,1,1,22.74,0,11.19,11.19,0,0,1-1.14,4.92.1.1,0,0,1,0,0l0,0-2.85,3.7-13.09,16.89c4.37,1.16,7.58,2.79,7.33,3.84s-4.52,1.11-9.53-.06a29.87,29.87,0,0,1-6.52-2.23C432.56,482.22,431.77,481.53,431.9,481Zm16.39-22.68a2.43,2.43,0,1,0-2.44-2.44A2.43,2.43,0,0,0,448.29,458.33Z" transform="translate(-83.05 -134.7)"/><polygon class="cls-13" points="459.84 285.79 448.32 352.64 400.41 376.34 414.52 303.67 459.84 285.79"/><path class="cls-8" d="M470.84,407.23c-1.9,1.33-1.46,1.77-5.28,1.47a118.08,118.08,0,0,1-12.05-2.2,40.35,40.35,0,0,1,2.8,6.91c.73,2.93,4,13.07,5.87,15.41a42.61,42.61,0,0,1,4,6.61s1.47,2.94-2.2,2.94-5.29-1.76-5.29-1.76-3.37,1.76-6.17.73l-2.78-1s-3,2.49-4.88,1.17a38.51,38.51,0,0,1-3.2-2.5,5.78,5.78,0,0,1-4.85-1c-2.06-1.75-16.06-15.54-18.76-20.69s-3.56-7.06-5.77-7.5a29.63,29.63,0,0,1-5.38-2.17c4.19-3.32,4.68-9.13,7.5-12,1.79-1.79,3.85-2.5,3.66-3.48.11.11,2,1.88,11,1.88,9.25,0,13.36,0,19.82,3.08s12.05,7.2,17.19,8.52S472.75,405.91,470.84,407.23Z" transform="translate(-83.05 -134.7)"/><path class="cls-9" d="M437.11,428.55l4.51,6.44a40.39,40.39,0,0,0-1.87-4.23C438.82,429.05,436.61,427.84,437.11,428.55Z" transform="translate(-83.05 -134.7)"/><path class="cls-9" d="M444,426.26a1.54,1.54,0,0,0,0,1.43c.43.57,5.67,8.63,5.67,8.63S443.78,424.48,444,426.26Z" transform="translate(-83.05 -134.7)"/><path class="cls-9" d="M450,421s-.14,2.36.68,3.43,7.94,12.2,7.94,12.2-7.12-12.85-7.55-13.84A8.59,8.59,0,0,0,450,421Z" transform="translate(-83.05 -134.7)"/><path class="cls-9" d="M446.77,398.92l6.74,7.58,3.13.69a49.31,49.31,0,0,1-4.94-3.61Z" transform="translate(-83.05 -134.7)"/><path class="cls-3" d="M450.71,455.89a2.43,2.43,0,1,1-2.42-2.42A2.43,2.43,0,0,1,450.71,455.89Z" transform="translate(-83.05 -134.7)"/><path class="cls-7" d="M458.66,460.73l0,0a.1.1,0,0,0,0,0Z" transform="translate(-83.05 -134.7)"/><path class="cls-10" d="M450.71,455.89a2.43,2.43,0,1,1-2.42-2.42A2.43,2.43,0,0,1,450.71,455.89Z" transform="translate(-83.05 -134.7)"/><path class="cls-7" d="M450,485.22c-.26,1.13-4.52,1.11-9.53-.06a29.87,29.87,0,0,1-6.52-2.23c-1.39-.71-2.18-1.4-2.05-1.92s.88-.73,2.07-.8a25,25,0,0,1,6.43.63l.39,3,1.88-2.42C447,482.54,450.25,484.17,450,485.22Z" transform="translate(-83.05 -134.7)"/><path class="cls-3" d="M448.4,444.44A11.37,11.37,0,0,0,437,455.81l.39,3,3,22.06.39,3,1.88-2.42,13.09-16.89,2.85-3.7,0,0a.1.1,0,0,0,0,0,11.19,11.19,0,0,0,1.14-4.92A11.38,11.38,0,0,0,448.4,444.44Zm-.11,13.89a2.43,2.43,0,1,1,0-4.86,2.43,2.43,0,0,1,0,4.86Z" transform="translate(-83.05 -134.7)"/></svg>