<svg id="Layer_1" data-name="Layer 1" xmlns="http://www.w3.org/2000/svg" viewBox="0 0 569.74 555.42"><defs><style>.cls-1{fill:#f5bc67;}.cls-2{fill:#242c33;}.cls-3{fill:#5b3a24;}.cls-4,.cls-7,.cls-9{fill:#eaeaea;}.cls-5{fill:#d19a74;}.cls-6{fill:#f7c099;}.cls-7{opacity:0.24;}.cls-8{fill:#e0a57c;}.cls-10{fill:#db7163;}.cls-11{fill:#fff;}.cls-12{fill:#2d2930;}</style></defs><path class="cls-1" d="M615.38,484.76c.09.13.19.25.29.37l-.24.19C615.41,485.13,615.4,485,615.38,484.76Z" transform="translate(-136.08 -18.01)"/><path class="cls-2" d="M563.46,524.78c-101.09,63.83-234.39,57.93-349.35,22-14.19-4.44-28.41-9.38-41.84-15.74V517.94c0-20.46,4.33-39.34,19.67-58.13s55.46-30,71.59-32.34,52-29.88,52-29.88c-2.72,6.2-8.91,16.73-22,32.69-13.63,16.62,37.51,21.46,78.5,20.54,19.17-.43,36.12-2.11,43.2-4.44,22.21-7.32,9.52-21.3,4.3-32.1-2.89-6-2.2-9.09.16-12.41,7.17.34,12.84.62,16.08.82,18.88,1.18,74.34,26.35,105,42.09C558.72,454,563,493.44,563.46,524.78Z" transform="translate(-136.08 -18.01)"/><path class="cls-3" d="M546.68,254.88c0,21.26-14.24,38.48-31.83,38.48a26.61,26.61,0,0,1-9.12-1.61c-3,11.41-6.79,21.95-10.74,29.81a54.34,54.34,0,0,1-3.77,6.33c-.68-2.37-3.33-6.36-8.83-3.61-6.26,3.13-11.55,12.32-11.91,12.94.53-1.37,17.55-45.56,18.68-65.06,1.13-19.81-10.2-52.08-23.22-54.92s-27.74-20.94-47-21.5-18.11,0-43,18.68-36.79,54.91-36.79,54.91-1.31-13-5.54-13.49c-1.26-.16-2.46.7-3.51,2.13,3.15-13.06,8.62-26.27,17.78-37.45,30.81-37.6,58.88-57.11,99.48-41.77,33.91,12.81,51.38,22.37,59.64,38.84a26.76,26.76,0,0,1,7.86-1.18C532.44,216.41,546.68,233.63,546.68,254.88Z" transform="translate(-136.08 -18.01)"/><path class="cls-4" d="M330.8,276.48c-.25,2.09-2.12,17.19-3.34,12.48a6.36,6.36,0,0,0-1.18-2.51c.05-1.32.11-2.66.21-4,.27-.38.59-.82,1-1.32C329.62,278.21,330.48,277,330.8,276.48Z" transform="translate(-136.08 -18.01)"/><path class="cls-3" d="M330.42,309.27a45.31,45.31,0,0,0-2.37,9.5c0-.19-.7-3.9-1.23-9.95A13.44,13.44,0,0,0,330.42,309.27Z" transform="translate(-136.08 -18.01)"/><path class="cls-4" d="M330.8,276.47l0-.23S331.13,275.94,330.8,276.47Z" transform="translate(-136.08 -18.01)"/><path class="cls-4" d="M335.26,266c-.2-5.38-6.2,5.81-8.21,9.73,0-.12,0-.24,0-.36h0c.6-1.46,1.73-4.21,3.86-9.36C335.5,255,335.26,266,335.26,266Z" transform="translate(-136.08 -18.01)"/><path class="cls-4" d="M394.11,301.83a10.4,10.4,0,0,1-3.58-1.38c-2.19-1.24-2.74-4,.83-4S394.11,301.83,394.11,301.83Z" transform="translate(-136.08 -18.01)"/><path class="cls-4" d="M407.35,309C404,310.28,402.9,305,402.9,305a10.32,10.32,0,0,1,3.83,0C409.21,305.39,410.69,307.78,407.35,309Z" transform="translate(-136.08 -18.01)"/><path class="cls-4" d="M410.93,244.36l-2.8,3.87h-1.61s-18.51-17-21.2-17.22-14.16,3-15.21,3.32c1.12-.49,14.91-6.33,18.22-6.12S410.93,244.36,410.93,244.36Z" transform="translate(-136.08 -18.01)"/><path class="cls-4" d="M447.35,366.84,440.2,364c.31-.27.61-.53.9-.75s.29-.23.43-.34a7.75,7.75,0,0,1,1.26-.74l.28-.11a1.12,1.12,0,0,1,.31-.1.86.86,0,0,1,.23-.06l.26-.05h.26C445.6,361.8,446.72,363.23,447.35,366.84Z" transform="translate(-136.08 -18.01)"/><path class="cls-3" d="M454.57,362.05c-4.23,2.94-7,4.68-7.22,4.78,3.54-4,6.11-6.6,6.24-6A2.5,2.5,0,0,0,454.57,362.05Z" transform="translate(-136.08 -18.01)"/><path class="cls-4" d="M473.94,289.39s-5.6-21-8.09-23.22-25.13-4.41-25.13-4.41l2.79-7.49s17.19,4,23.22,6.61S473.94,289.39,473.94,289.39Z" transform="translate(-136.08 -18.01)"/><path class="cls-4" d="M464.41,350.3c-3.57-.12,4.27-3,5.65-8.19s3.35-4,3.35-4C480,346.82,468,350.42,464.41,350.3Z" transform="translate(-136.08 -18.01)"/><path class="cls-4" d="M486.81,333.7c-1.22,1.46-2.5,2.91-3.82,4.32,1.22-3.94,1.57-7.59-1.28-7.67,0,0,4.25-4.72,5.42,0A6.7,6.7,0,0,1,486.81,333.7Z" transform="translate(-136.08 -18.01)"/><path class="cls-5" d="M372.07,450.82c-41,.92-92.13-3.92-78.5-20.53,13.09-16,19.28-26.5,22-32.69,1.42-3.26,1.89-5.32,1.89-6.32,0-2.93,7.41-21.18,9.79-34.93.9-5.27,1.47-9.21,1.82-12.08,4.66,13.14,12.34,29.36,16.53,35a67.7,67.7,0,0,1,9.59,19.88,76.25,76.25,0,0,1,3.41,22.16C358.6,429.84,365.26,441.3,372.07,450.82Z" transform="translate(-136.08 -18.01)"/><path class="cls-6" d="M491.22,327.89c-.68-2.37-3.33-6.36-8.83-3.61-6.26,3.13-11.55,12.32-11.91,12.94.53-1.37,17.55-45.56,18.68-65.06,1.13-19.81-10.2-52.08-23.22-54.92s-27.74-20.94-47-21.5-18.11,0-43,18.68-36.79,54.91-36.79,54.91-1.31-13-5.54-13.49c-1.26-.16-2.46.7-3.51,2.13h0c-2.48,3.37-4.23,9.92-4.42,14-.26,5.82-5,15.08-5.82,26.45-.49,7.08,3.72,9.55,7,10.4a13.44,13.44,0,0,0,3.6.45,45.31,45.31,0,0,0-2.37,9.5h0a40.76,40.76,0,0,0,1.58,19.05s0,.63-.12,2.1a41.85,41.85,0,0,0,9.17,10.37c12.73,10.45,19.36,19.3,30.43,23.17A223.17,223.17,0,0,0,396.88,381l.54-.75c2.75-3.89,9.56-10.05,14.9-11s6.49,1.46,6.49,1.46c6.48,1.45-3.25,7.94-5.35,10.21A17.76,17.76,0,0,0,412,383a34.23,34.23,0,0,0,8.05-.43,7.93,7.93,0,0,0,.84-.21l.39-.14.06,0,.35-.15.46-.2.37-.19c.27-.15.56-.31.84-.49l.62-.4c.34-.23.7-.49,1.05-.76l.42-.34c.14-.11.28-.22.42-.35.48-.39.95-.83,1.44-1.28l.66-.64c3.1-3.05,6.16-6.89,8.93-10l.58-.65A39.41,39.41,0,0,1,440.2,364c.31-.27.61-.53.9-.75s.29-.23.43-.34a7.75,7.75,0,0,1,1.26-.74l.28-.11a1.12,1.12,0,0,1,.31-.1.86.86,0,0,1,.23-.06l.26-.05h.26c1.47,0,2.59,1.43,3.22,5h0c3.54-4,6.11-6.6,6.24-6a2.5,2.5,0,0,0,1,1.23c2,1.61,7,3.47,13.6,2.91,8.46-.72,14.76-17.28,15.13-20.16s8.1-14,8.1-15.85A4.1,4.1,0,0,0,491.22,327.89ZM327.46,289a6.36,6.36,0,0,0-1.18-2.51c-1.11-1.35-2-1,.21-4,.27-.38.59-.82,1-1.32,2.16-2.89,3-4.12,3.34-4.62C330.55,278.57,328.68,293.67,327.46,289Zm3.34-12.49,0-.23S331.13,275.94,330.8,276.47ZM335.26,266c-.2-5.38-6.2,5.81-8.21,9.73l-.58,1.14c.07-.18.23-.6.62-1.5h0c.6-1.46,1.73-4.21,3.86-9.36C335.5,255,335.26,266,335.26,266Zm58.85,35.8a10.4,10.4,0,0,1-3.58-1.38c-2.19-1.24-2.74-4,.83-4S394.11,301.83,394.11,301.83Zm13.24,7.2C404,310.28,402.9,305,402.9,305a10.32,10.32,0,0,1,3.83,0C409.21,305.39,410.69,307.78,407.35,309Zm.78-60.8h-1.61s-18.51-17-21.2-17.22-14.16,3-15.21,3.32c1.12-.49,14.91-6.33,18.22-6.12s22.6,16.15,22.6,16.15Zm65.28,89.84c6.57,8.75-5.42,12.35-9,12.23s4.27-3,5.65-8.19S473.41,338.07,473.41,338.07Zm-32.69-76.31,2.79-7.49s17.19,4,23.22,6.61,7.21,28.51,7.21,28.51-5.6-21-8.09-23.22S440.72,261.76,440.72,261.76Zm38.13,86.08A67.44,67.44,0,0,0,483,338c1.22-3.94,1.57-7.59-1.28-7.67,0,0,4.25-4.72,5.42,0a6.7,6.7,0,0,1-.32,3.35C485.16,339.19,479.28,347.27,478.85,347.84Z" transform="translate(-136.08 -18.01)"/><path class="cls-7" d="M330.8,276.47l0-.23S331.13,275.94,330.8,276.47Z" transform="translate(-136.08 -18.01)"/><path class="cls-7" d="M330.8,276.48c-.25,2.09-2.12,17.19-3.34,12.48a6.36,6.36,0,0,0-1.18-2.51c-1.11-1.35-2-1,.21-4,.27-.38.59-.82,1-1.32C329.62,278.21,330.48,277,330.8,276.48Z" transform="translate(-136.08 -18.01)"/><path class="cls-7" d="M335.26,266c-.2-5.38-6.2,5.81-8.21,9.73l-.58,1.14c.07-.18.23-.6.62-1.5h0c.6-1.46,1.73-4.21,3.86-9.36C335.5,255,335.26,266,335.26,266Z" transform="translate(-136.08 -18.01)"/><path class="cls-7" d="M394.11,301.83a10.4,10.4,0,0,1-3.58-1.38c-2.19-1.24-2.74-4,.83-4S394.11,301.83,394.11,301.83Z" transform="translate(-136.08 -18.01)"/><path class="cls-7" d="M407.35,309C404,310.28,402.9,305,402.9,305a10.32,10.32,0,0,1,3.83,0C409.21,305.39,410.69,307.78,407.35,309Z" transform="translate(-136.08 -18.01)"/><path class="cls-7" d="M410.93,244.36l-2.8,3.87h-1.61s-18.51-17-21.2-17.22-14.16,3-15.21,3.32c1.12-.49,14.91-6.33,18.22-6.12S410.93,244.36,410.93,244.36Z" transform="translate(-136.08 -18.01)"/><path class="cls-7" d="M413.46,380.91A17.76,17.76,0,0,0,412,383a103.52,103.52,0,0,1-15.07-2l.54-.75c2.75-3.89,9.56-10.05,14.9-11s6.49,1.46,6.49,1.46C425.29,372.15,415.56,378.64,413.46,380.91Z" transform="translate(-136.08 -18.01)"/><path class="cls-7" d="M473.94,289.39s-5.6-21-8.09-23.22-25.13-4.41-25.13-4.41l2.79-7.49s17.19,4,23.22,6.61S473.94,289.39,473.94,289.39Z" transform="translate(-136.08 -18.01)"/><path class="cls-7" d="M464.41,350.3c-3.57-.12,4.27-3,5.65-8.19s3.35-4,3.35-4C480,346.82,468,350.42,464.41,350.3Z" transform="translate(-136.08 -18.01)"/><path class="cls-7" d="M486.81,333.7c-1.65,5.49-7.53,13.57-8,14.14A67.44,67.44,0,0,0,483,338c1.22-3.94,1.57-7.59-1.28-7.67,0,0,4.25-4.72,5.42,0A6.7,6.7,0,0,1,486.81,333.7Z" transform="translate(-136.08 -18.01)"/><path class="cls-8" d="M335.26,266c-.2-5.38-6.2,5.81-8.21,9.73l-.58,1.14c.07-.18.23-.6.62-1.5h0c.6-1.46,1.73-4.21,3.86-9.36C335.5,255,335.26,266,335.26,266Z" transform="translate(-136.08 -18.01)"/><path class="cls-8" d="M330.8,276.48c-.25,2.09-2.12,17.19-3.34,12.48a6.36,6.36,0,0,0-1.18-2.51c-1.11-1.35-2-1,.21-4,.27-.38.59-.82,1-1.32C329.62,278.21,330.48,277,330.8,276.48Z" transform="translate(-136.08 -18.01)"/><path class="cls-4" d="M330.8,276.47l0-.23S331.13,275.94,330.8,276.47Z" transform="translate(-136.08 -18.01)"/><path class="cls-8" d="M486.81,333.7c-1.65,5.49-7.53,13.57-8,14.14A67.44,67.44,0,0,0,483,338c1.22-3.94,1.57-7.59-1.28-7.67,0,0,4.25-4.72,5.42,0A6.7,6.7,0,0,1,486.81,333.7Z" transform="translate(-136.08 -18.01)"/><path class="cls-8" d="M464.41,350.3c-3.57-.12,4.27-3,5.65-8.19s3.35-4,3.35-4C480,346.82,468,350.42,464.41,350.3Z" transform="translate(-136.08 -18.01)"/><path class="cls-8" d="M394.11,301.83a10.4,10.4,0,0,1-3.58-1.38c-2.19-1.24-2.74-4,.83-4S394.11,301.83,394.11,301.83Z" transform="translate(-136.08 -18.01)"/><path class="cls-8" d="M407.35,309C404,310.28,402.9,305,402.9,305a10.32,10.32,0,0,1,3.83,0C409.21,305.39,410.69,307.78,407.35,309Z" transform="translate(-136.08 -18.01)"/><path class="cls-3" d="M410.93,244.36l-2.8,3.87h-1.61s-18.51-17-21.2-17.22-14.16,3-15.21,3.32c1.12-.49,14.91-6.33,18.22-6.12S410.93,244.36,410.93,244.36Z" transform="translate(-136.08 -18.01)"/><path class="cls-3" d="M473.94,289.39s-5.6-21-8.09-23.22-25.13-4.41-25.13-4.41l2.79-7.49s17.19,4,23.22,6.61S473.94,289.39,473.94,289.39Z" transform="translate(-136.08 -18.01)"/><path class="cls-5" d="M419.57,414.28c5.22,10.81,17.91,24.79-4.3,32.1l-.69.22-.76.21-.8.21c-.55.14-1.14.27-1.76.4l-.84.17-.58.11-1.19.22-1.37.23c-.95.15-1.94.31-3,.44l-1.24.16-1.28.16-1.3.16c-1.77.2-3.64.39-5.6.55l-2.58.22-.4,0-1.16.09-1.58.11-.9.05-1,.07c-3.7.23-7.59.41-11.6.54l-3.57.09c-6.81-9.52-13.47-21-13.47-29.5,0-.42,0-.84,0-1.27s0-.56,0-.84,0-.79,0-1.18,0-.68,0-1a.91.91,0,0,1,0-.17l-.07-.93c0-.22,0-.45-.05-.67a.13.13,0,0,1,0-.06c0-.38-.07-.75-.11-1.12s-.1-1-.16-1.43v-.08q-.18-1.38-.39-2.73c-.08-.47-.15-.93-.24-1.39s-.16-.91-.26-1.37-.18-.91-.28-1.36c-.13-.62-.27-1.24-.42-1.84,0-.07,0-.14-.05-.21-.12-.5-.25-1-.38-1.49l-.06-.25c-.25-.93-.52-1.85-.79-2.75a67.7,67.7,0,0,0-9.59-19.88c-4.19-5.65-11.87-21.87-16.53-35,.22-1.9.36-3.32.44-4.34a41.85,41.85,0,0,0,9.17,10.37c12.73,10.45,19.36,19.3,30.43,23.17A223.17,223.17,0,0,0,396.88,381,103.52,103.52,0,0,0,412,383a34.23,34.23,0,0,0,8.05-.43,7.93,7.93,0,0,0,.84-.21l.39-.14.06,0,.35-.15.46-.2.37-.19c.27-.15.56-.31.84-.49l.62-.4c.34-.23.7-.49,1.05-.76l.42-.34c.14-.11.28-.22.42-.35.48-.39.95-.83,1.44-1.28l.66-.64c3.1-3.05,6.16-6.89,8.93-10l.58-.65A39.41,39.41,0,0,1,440.2,364c.31-.27.61-.53.9-.75s.29-.23.43-.34a7.75,7.75,0,0,1,1.26-.74l.28-.11a1.12,1.12,0,0,1,.31-.1.86.86,0,0,1,.23-.06l.26-.05h.26c1.47,0,2.59,1.43,3.22,5a300,300,0,0,0-19.68,24.94c-3.06,4.59-6,7.41-7.94,10.1C417.37,405.2,416.68,408.31,419.57,414.28Z" transform="translate(-136.08 -18.01)"/><path class="cls-6" d="M393.4,523.29c-1.08,15.82-21.26,35.16-28.94,34.22s-11.87-17.68-15.13-24.2-8.38-16.76-10-22.34-10.24-14.43-16.05-24.67-3.56-12.08-3.56-12.08-5.82-.56-7.07-1.25.14-13.16.14-13.16V447.22l10-11.24s8.1-14.62,13.43-14.52,16.44,4.24,17,4.43c-.45-.33-7.7-5.64-8.27-6.31a22.31,22.31,0,0,0-2.76-2.17s-7.41,5.63-12.35,5l-4.94-.6-5.83,7.3-.09.11s-4.47,4.75-7.44,5-7.62-1.19-9.4-4.76,6.29-10.54,6.29-10.54a17.1,17.1,0,0,1,3.09-3.53c2-1.73,9.13-7.91,12.34-9.14s20.5-4.2,25.19-6.66,10.86,6.41,19.5,15.8A136.64,136.64,0,0,0,385,430.71s6.17,6.42,8.4,9.14-3,13.57-5.19,18.76-2.22,36-2,48.39S393.4,523.29,393.4,523.29Z" transform="translate(-136.08 -18.01)"/><path class="cls-8" d="M413.46,380.91A17.76,17.76,0,0,0,412,383c-3.84,5.92-12.39,21.18-13.08,22.83-.81,1.95-13.87,24.85-13.87,24.85h0l-14.44-13.1-.05,0s6.18-11.54,9.42-14.94c3.06-3.21,13.5-16.84,17-21.61l.54-.75c2.75-3.89,9.56-10.05,14.9-11s6.49,1.46,6.49,1.46C425.29,372.15,415.56,378.64,413.46,380.91Z" transform="translate(-136.08 -18.01)"/><path class="cls-5" d="M333.68,470.46s2.09-8.38-.41-9.43l-2.49-1s4.59.89,6.6-2.9.81-10.55.81-10.55.4,6.12,3.71,6.12,10.47-3.46,10.47-3.46-4.91,5.48-3.22,6.68a8.49,8.49,0,0,0,3.22,1.46s-.08,2.82,1.29,3.14,0,2.74,0,2.74-2.5,3.22-2.5,6.69.16-9.92-4.35-9.92S335.77,463.45,333.68,470.46Z" transform="translate(-136.08 -18.01)"/><path class="cls-8" d="M322.74,436l-10,11.24v12.59s-5.4-8.73-7.62-12.75-9.15-19.79-10.11-22.58-2.09-4.72,3.88-6.51,9.41,1,9.41,1-8.07,7-6.29,10.54,6.42,5,9.4,4.76,7.44-5,7.44-5Z" transform="translate(-136.08 -18.01)"/><ellipse class="cls-9" cx="36.2" cy="249.5" rx="36.2" ry="4.61"/><path class="cls-10" d="M201.56,198a29.26,29.26,0,0,1-9.44,21.55l-19.85,45.3-19.85-45.31A29.29,29.29,0,1,1,201.56,198Z" transform="translate(-136.08 -18.01)"/><circle class="cls-11" cx="36.2" cy="180.29" r="7.33"/><ellipse class="cls-9" cx="266.82" cy="98.8" rx="36.2" ry="4.61"/><path class="cls-1" d="M432.19,47.3a29.26,29.26,0,0,1-9.44,21.55l-19.86,45.3L383.05,68.84A29.29,29.29,0,1,1,432.19,47.3Z" transform="translate(-136.08 -18.01)"/><circle class="cls-11" cx="266.82" cy="29.59" r="7.33"/><ellipse class="cls-9" cx="533.54" cy="257.29" rx="36.2" ry="4.61"/><path class="cls-12" d="M698.91,205.79a29.26,29.26,0,0,1-9.44,21.55l-19.86,45.3-19.84-45.31a29.29,29.29,0,1,1,49.14-21.54Z" transform="translate(-136.08 -18.01)"/><circle class="cls-11" cx="533.54" cy="188.08" r="7.33"/><path class="cls-1" d="M609,450.82l.25-.3-.09.81C609.15,451.16,609.1,451,609,450.82Z" transform="translate(-136.08 -18.01)"/><path class="cls-1" d="M615.67,485.13l-.24.19c0-.19,0-.37,0-.56C615.47,484.89,615.57,485,615.67,485.13Z" transform="translate(-136.08 -18.01)"/></svg>